<?xml version="1.0" encoding="UTF-8" standalone="no"?>
<!DOCTYPE svg PUBLIC "-//W3C//DTD SVG 1.1//EN"
 "http://www.w3.org/Graphics/SVG/1.1/DTD/svg11.dtd">
<!-- Generated by graphviz version 2.47.3 (20210619.1520)
 -->
<!-- Title: dependencies Pages: 1 -->
<svg width="1032pt" height="174pt"
 viewBox="0.00 0.00 1032.00 173.80" xmlns="http://www.w3.org/2000/svg" xmlns:xlink="http://www.w3.org/1999/xlink">
<g id="graph0" class="graph" transform="scale(1 1) rotate(0) translate(4 169.8)">
<title>dependencies</title>
<polygon fill="white" stroke="transparent" points="-4,4 -4,-169.8 1028,-169.8 1028,4 -4,4"/>
<text text-anchor="middle" x="512" y="-8.2" font-family="sans-serif" font-size="14.00">dependencies</text>
<g id="clust1" class="cluster">
<title>cluster_ServicesModule</title>
<polygon fill="none" stroke="black" stroke-dasharray="1,5" points="8,-32.8 8,-157.8 1016,-157.8 1016,-32.8 8,-32.8"/>
</g>
<g id="clust2" class="cluster">
<title>cluster_ServicesModule_declarations</title>
<polygon fill="none" stroke="black" points="138,-40.8 138,-92.8 1008,-92.8 1008,-40.8 138,-40.8"/>
</g>
<g id="clust7" class="cluster">
<title>cluster_ServicesModule_imports</title>
<polygon fill="none" stroke="black" points="16,-40.8 16,-92.8 130,-92.8 130,-40.8 16,-40.8"/>
</g>
<!-- ServiceOrderDataComponent -->
<g id="node1" class="node">
<title>ServiceOrderDataComponent</title>
<polygon fill="#ffffb3" stroke="black" points="1000.38,-84.8 817.62,-84.8 817.62,-48.8 1000.38,-48.8 1000.38,-84.8"/>
<text text-anchor="middle" x="909" y="-62.6" font-family="Times,serif" font-size="14.00">ServiceOrderDataComponent</text>
</g>
<!-- ServicesModule -->
<g id="node5" class="node">
<title>ServicesModule</title>
<polygon fill="#8dd3c7" stroke="black" points="542.47,-149.8 539.47,-153.8 518.47,-153.8 515.47,-149.8 435.53,-149.8 435.53,-113.8 542.47,-113.8 542.47,-149.8"/>
<text text-anchor="middle" x="489" y="-127.6" font-family="Times,serif" font-size="14.00">ServicesModule</text>
</g>
<!-- ServiceOrderDataComponent&#45;&gt;ServicesModule -->
<g id="edge1" class="edge">
<title>ServiceOrderDataComponent&#45;&gt;ServicesModule</title>
<path fill="none" stroke="black" d="M909,-85.08C909,-106.12 909,-137.8 909,-137.8 909,-137.8 552.62,-137.8 552.62,-137.8"/>
<polygon fill="black" stroke="black" points="552.62,-134.3 542.62,-137.8 552.62,-141.3 552.62,-134.3"/>
</g>
<!-- ServiceOrderFormComponent -->
<g id="node2" class="node">
<title>ServiceOrderFormComponent</title>
<polygon fill="#ffffb3" stroke="black" points="800.29,-84.8 613.71,-84.8 613.71,-48.8 800.29,-48.8 800.29,-84.8"/>
<text text-anchor="middle" x="707" y="-62.6" font-family="Times,serif" font-size="14.00">ServiceOrderFormComponent</text>
</g>
<!-- ServiceOrderFormComponent&#45;&gt;ServicesModule -->
<g id="edge2" class="edge">
<title>ServiceOrderFormComponent&#45;&gt;ServicesModule</title>
<path fill="none" stroke="black" d="M707,-84.82C707,-102.17 707,-125.8 707,-125.8 707,-125.8 552.61,-125.8 552.61,-125.8"/>
<polygon fill="black" stroke="black" points="552.61,-122.3 542.61,-125.8 552.61,-129.3 552.61,-122.3"/>
</g>
<!-- ServiceSolicitationDataComponent -->
<g id="node3" class="node">
<title>ServiceSolicitationDataComponent</title>
<polygon fill="#ffffb3" stroke="black" points="596.29,-84.8 381.71,-84.8 381.71,-48.8 596.29,-48.8 596.29,-84.8"/>
<text text-anchor="middle" x="489" y="-62.6" font-family="Times,serif" font-size="14.00">ServiceSolicitationDataComponent</text>
</g>
<!-- ServiceSolicitationDataComponent&#45;&gt;ServicesModule -->
<g id="edge3" class="edge">
<title>ServiceSolicitationDataComponent&#45;&gt;ServicesModule</title>
<path fill="none" stroke="black" d="M489,-84.91C489,-84.91 489,-103.79 489,-103.79"/>
<polygon fill="black" stroke="black" points="485.5,-103.79 489,-113.79 492.5,-103.79 485.5,-103.79"/>
</g>
<!-- ServiceSolicitationFormComponent -->
<g id="node4" class="node">
<title>ServiceSolicitationFormComponent</title>
<polygon fill="#ffffb3" stroke="black" points="364.2,-84.8 145.8,-84.8 145.8,-48.8 364.2,-48.8 364.2,-84.8"/>
<text text-anchor="middle" x="255" y="-62.6" font-family="Times,serif" font-size="14.00">ServiceSolicitationFormComponent</text>
</g>
<!-- ServiceSolicitationFormComponent&#45;&gt;ServicesModule -->
<g id="edge4" class="edge">
<title>ServiceSolicitationFormComponent&#45;&gt;ServicesModule</title>
<path fill="none" stroke="black" d="M255,-84.82C255,-102.17 255,-125.8 255,-125.8 255,-125.8 425.32,-125.8 425.32,-125.8"/>
<polygon fill="black" stroke="black" points="425.32,-129.3 435.32,-125.8 425.32,-122.3 425.32,-129.3"/>
</g>
<!-- SharedModule -->
<g id="node6" class="node">
<title>SharedModule</title>
<polygon fill="#8dd3c7" stroke="black" points="122.42,-84.8 119.42,-88.8 98.42,-88.8 95.42,-84.8 23.58,-84.8 23.58,-48.8 122.42,-48.8 122.42,-84.8"/>
<text text-anchor="middle" x="73" y="-62.6" font-family="Times,serif" font-size="14.00">SharedModule</text>
</g>
<!-- SharedModule&#45;&gt;ServicesModule -->
<g id="edge5" class="edge">
<title>SharedModule&#45;&gt;ServicesModule</title>
<path fill="none" stroke="black" d="M73,-85.08C73,-106.12 73,-137.8 73,-137.8 73,-137.8 425.47,-137.8 425.47,-137.8"/>
<polygon fill="black" stroke="black" points="425.47,-141.3 435.47,-137.8 425.47,-134.3 425.47,-141.3"/>
</g>
</g>
</svg>
