<?xml version="1.0" encoding="UTF-8" standalone="no"?>
<!DOCTYPE svg PUBLIC "-//W3C//DTD SVG 1.1//EN"
 "http://www.w3.org/Graphics/SVG/1.1/DTD/svg11.dtd">
<!-- Generated by graphviz version 2.47.3 (20210619.1520)
 -->
<!-- Title: dependencies Pages: 1 -->
<svg width="3790pt" height="247pt"
 viewBox="0.00 0.00 3790.00 246.80" xmlns="http://www.w3.org/2000/svg" xmlns:xlink="http://www.w3.org/1999/xlink">
<g id="graph0" class="graph" transform="scale(1 1) rotate(0) translate(4 242.8)">
<title>dependencies</title>
<polygon fill="white" stroke="transparent" points="-4,4 -4,-242.8 3786,-242.8 3786,4 -4,4"/>
<text text-anchor="middle" x="1891" y="-8.2" font-family="sans-serif" font-size="14.00">dependencies</text>
<g id="clust1" class="cluster">
<title>cluster_SharedModule</title>
<polygon fill="none" stroke="black" stroke-dasharray="1,5" points="8,-32.8 8,-230.8 3774,-230.8 3774,-32.8 8,-32.8"/>
</g>
<g id="clust24" class="cluster">
<title>cluster_SharedModule_exports</title>
<polygon fill="none" stroke="black" points="16,-170.8 16,-222.8 3766,-222.8 3766,-170.8 16,-170.8"/>
</g>
<g id="clust2" class="cluster">
<title>cluster_SharedModule_declarations</title>
<polygon fill="none" stroke="black" points="60,-40.8 60,-92.8 3739,-92.8 3739,-40.8 60,-40.8"/>
</g>
<!-- BorderedInputComponent -->
<g id="node1" class="node">
<title>BorderedInputComponent</title>
<polygon fill="#ffffb3" stroke="black" points="3731.47,-84.8 3568.53,-84.8 3568.53,-48.8 3731.47,-48.8 3731.47,-84.8"/>
<text text-anchor="middle" x="3650" y="-62.6" font-family="Times,serif" font-size="14.00">BorderedInputComponent</text>
</g>
<!-- SharedModule -->
<g id="node21" class="node">
<title>SharedModule</title>
<polygon fill="#8dd3c7" stroke="black" points="1934.42,-149.8 1931.42,-153.8 1910.42,-153.8 1907.42,-149.8 1835.58,-149.8 1835.58,-113.8 1934.42,-113.8 1934.42,-149.8"/>
<text text-anchor="middle" x="1885" y="-127.6" font-family="Times,serif" font-size="14.00">SharedModule</text>
</g>
<!-- BorderedInputComponent&#45;&gt;SharedModule -->
<g id="edge1" class="edge">
<title>BorderedInputComponent&#45;&gt;SharedModule</title>
<path fill="none" stroke="black" d="M3582.98,-84.97C3582.98,-103.89 3582.98,-130.8 3582.98,-130.8 3582.98,-130.8 1944.44,-130.8 1944.44,-130.8"/>
<polygon fill="black" stroke="black" points="1944.44,-127.3 1934.44,-130.8 1944.44,-134.3 1944.44,-127.3"/>
</g>
<!-- ContentContainerComponent -->
<g id="node2" class="node">
<title>ContentContainerComponent</title>
<polygon fill="#ffffb3" stroke="black" points="3550.37,-84.8 3369.63,-84.8 3369.63,-48.8 3550.37,-48.8 3550.37,-84.8"/>
<text text-anchor="middle" x="3460" y="-62.6" font-family="Times,serif" font-size="14.00">ContentContainerComponent</text>
</g>
<!-- ContentContainerComponent&#45;&gt;SharedModule -->
<g id="edge2" class="edge">
<title>ContentContainerComponent&#45;&gt;SharedModule</title>
<path fill="none" stroke="black" d="M3381,-85.07C3381,-103.36 3381,-128.8 3381,-128.8 3381,-128.8 1944.35,-128.8 1944.35,-128.8"/>
<polygon fill="black" stroke="black" points="1944.35,-125.3 1934.35,-128.8 1944.35,-132.3 1944.35,-125.3"/>
</g>
<!-- ContentTopMenuComponent -->
<g id="node3" class="node">
<title>ContentTopMenuComponent</title>
<polygon fill="#ffffb3" stroke="black" points="3351.38,-84.8 3170.62,-84.8 3170.62,-48.8 3351.38,-48.8 3351.38,-84.8"/>
<text text-anchor="middle" x="3261" y="-62.6" font-family="Times,serif" font-size="14.00">ContentTopMenuComponent</text>
</g>
<!-- ContentTopMenuComponent&#45;&gt;SharedModule -->
<g id="edge3" class="edge">
<title>ContentTopMenuComponent&#45;&gt;SharedModule</title>
<path fill="none" stroke="black" d="M3179.19,-84.8C3179.19,-102.48 3179.19,-126.8 3179.19,-126.8 3179.19,-126.8 1944.55,-126.8 1944.55,-126.8"/>
<polygon fill="black" stroke="black" points="1944.55,-123.3 1934.55,-126.8 1944.55,-130.3 1944.55,-123.3"/>
</g>
<!-- CrudTableComponent -->
<g id="node4" class="node">
<title>CrudTableComponent</title>
<polygon fill="#ffffb3" stroke="black" points="3152.7,-84.8 3011.3,-84.8 3011.3,-48.8 3152.7,-48.8 3152.7,-84.8"/>
<text text-anchor="middle" x="3082" y="-62.6" font-family="Times,serif" font-size="14.00">CrudTableComponent</text>
</g>
<!-- CrudTableComponent&#45;&gt;SharedModule -->
<g id="edge4" class="edge">
<title>CrudTableComponent&#45;&gt;SharedModule</title>
<path fill="none" stroke="black" d="M3018.02,-84.83C3018.02,-101.86 3018.02,-124.8 3018.02,-124.8 3018.02,-124.8 1944.41,-124.8 1944.41,-124.8"/>
<polygon fill="black" stroke="black" points="1944.41,-121.3 1934.41,-124.8 1944.41,-128.3 1944.41,-121.3"/>
</g>
<!-- DataTableComponent -->
<g id="node5" class="node">
<title>DataTableComponent</title>
<polygon fill="#ffffb3" stroke="black" points="2993.63,-84.8 2854.37,-84.8 2854.37,-48.8 2993.63,-48.8 2993.63,-84.8"/>
<text text-anchor="middle" x="2924" y="-62.6" font-family="Times,serif" font-size="14.00">DataTableComponent</text>
</g>
<!-- DataTableComponent&#45;&gt;SharedModule -->
<g id="edge5" class="edge">
<title>DataTableComponent&#45;&gt;SharedModule</title>
<path fill="none" stroke="black" d="M2858.81,-84.83C2858.81,-101.2 2858.81,-122.8 2858.81,-122.8 2858.81,-122.8 1944.29,-122.8 1944.29,-122.8"/>
<polygon fill="black" stroke="black" points="1944.29,-119.3 1934.29,-122.8 1944.29,-126.3 1944.29,-119.3"/>
</g>
<!-- DefaultDataPageComponent -->
<g id="node6" class="node">
<title>DefaultDataPageComponent</title>
<polygon fill="#ffffb3" stroke="black" points="2836.45,-84.8 2659.55,-84.8 2659.55,-48.8 2836.45,-48.8 2836.45,-84.8"/>
<text text-anchor="middle" x="2748" y="-62.6" font-family="Times,serif" font-size="14.00">DefaultDataPageComponent</text>
</g>
<!-- DefaultDataPageComponent&#45;&gt;SharedModule -->
<g id="edge6" class="edge">
<title>DefaultDataPageComponent&#45;&gt;SharedModule</title>
<path fill="none" stroke="black" d="M2779.24,-84.81C2779.24,-100.85 2779.24,-121.8 2779.24,-121.8 2779.24,-121.8 1944.35,-121.8 1944.35,-121.8"/>
<polygon fill="black" stroke="black" points="1944.35,-118.3 1934.35,-121.8 1944.35,-125.3 1944.35,-118.3"/>
</g>
<!-- DefaultFormPageComponent -->
<g id="node7" class="node">
<title>DefaultFormPageComponent</title>
<polygon fill="#ffffb3" stroke="black" points="2641.36,-84.8 2460.64,-84.8 2460.64,-48.8 2641.36,-48.8 2641.36,-84.8"/>
<text text-anchor="middle" x="2551" y="-62.6" font-family="Times,serif" font-size="14.00">DefaultFormPageComponent</text>
</g>
<!-- DefaultFormPageComponent&#45;&gt;SharedModule -->
<g id="edge7" class="edge">
<title>DefaultFormPageComponent&#45;&gt;SharedModule</title>
<path fill="none" stroke="black" d="M2581.89,-85.04C2581.89,-100.37 2581.89,-119.8 2581.89,-119.8 2581.89,-119.8 1944.28,-119.8 1944.28,-119.8"/>
<polygon fill="black" stroke="black" points="1944.28,-116.3 1934.28,-119.8 1944.28,-123.3 1944.28,-116.3"/>
</g>
<!-- DefaultPageComponent -->
<g id="node8" class="node">
<title>DefaultPageComponent</title>
<polygon fill="#ffffb3" stroke="black" points="2442.02,-84.8 2291.98,-84.8 2291.98,-48.8 2442.02,-48.8 2442.02,-84.8"/>
<text text-anchor="middle" x="2367" y="-62.6" font-family="Times,serif" font-size="14.00">DefaultPageComponent</text>
</g>
<!-- DefaultPageComponent&#45;&gt;SharedModule -->
<g id="edge8" class="edge">
<title>DefaultPageComponent&#45;&gt;SharedModule</title>
<path fill="none" stroke="black" d="M2392.09,-84.92C2392.09,-99.58 2392.09,-117.8 2392.09,-117.8 2392.09,-117.8 1944.54,-117.8 1944.54,-117.8"/>
<polygon fill="black" stroke="black" points="1944.54,-114.3 1934.54,-117.8 1944.54,-121.3 1944.54,-114.3"/>
</g>
<!-- DeleteModalComponent -->
<g id="node9" class="node">
<title>DeleteModalComponent</title>
<polygon fill="#ffffb3" stroke="black" points="2274.41,-84.8 2119.59,-84.8 2119.59,-48.8 2274.41,-48.8 2274.41,-84.8"/>
<text text-anchor="middle" x="2197" y="-62.6" font-family="Times,serif" font-size="14.00">DeleteModalComponent</text>
</g>
<!-- DeleteModalComponent&#45;&gt;SharedModule -->
<g id="edge9" class="edge">
<title>DeleteModalComponent&#45;&gt;SharedModule</title>
<path fill="none" stroke="black" d="M2170.85,-85.05C2170.85,-98.98 2170.85,-115.8 2170.85,-115.8 2170.85,-115.8 1944.46,-115.8 1944.46,-115.8"/>
<polygon fill="black" stroke="black" points="1944.46,-112.3 1934.46,-115.8 1944.46,-119.3 1944.46,-112.3"/>
</g>
<!-- ErrorMessageComponent -->
<g id="node10" class="node">
<title>ErrorMessageComponent</title>
<polygon fill="#ffffb3" stroke="black" points="2101.84,-84.8 1942.16,-84.8 1942.16,-48.8 2101.84,-48.8 2101.84,-84.8"/>
<text text-anchor="middle" x="2022" y="-62.6" font-family="Times,serif" font-size="14.00">ErrorMessageComponent</text>
</g>
<!-- ErrorMessageComponent&#45;&gt;SharedModule -->
<g id="edge10" class="edge">
<title>ErrorMessageComponent&#45;&gt;SharedModule</title>
<path fill="none" stroke="black" d="M1941.83,-66.8C1934.25,-66.8 1929.33,-66.8 1929.33,-66.8 1929.33,-66.8 1929.33,-103.69 1929.33,-103.69"/>
<polygon fill="black" stroke="black" points="1925.83,-103.69 1929.33,-113.69 1932.83,-103.69 1925.83,-103.69"/>
</g>
<!-- LogoComponent -->
<g id="node11" class="node">
<title>LogoComponent</title>
<polygon fill="#ffffb3" stroke="black" points="1924.39,-84.8 1813.61,-84.8 1813.61,-48.8 1924.39,-48.8 1924.39,-84.8"/>
<text text-anchor="middle" x="1869" y="-62.6" font-family="Times,serif" font-size="14.00">LogoComponent</text>
</g>
<!-- LogoComponent&#45;&gt;SharedModule -->
<g id="edge11" class="edge">
<title>LogoComponent&#45;&gt;SharedModule</title>
<path fill="none" stroke="black" d="M1880.12,-84.91C1880.12,-84.91 1880.12,-103.79 1880.12,-103.79"/>
<polygon fill="black" stroke="black" points="1876.62,-103.79 1880.12,-113.79 1883.62,-103.79 1876.62,-103.79"/>
</g>
<!-- LongAnswerFieldComponent -->
<g id="node12" class="node">
<title>LongAnswerFieldComponent</title>
<polygon fill="#ffffb3" stroke="black" points="1795.7,-84.8 1612.3,-84.8 1612.3,-48.8 1795.7,-48.8 1795.7,-84.8"/>
<text text-anchor="middle" x="1704" y="-62.6" font-family="Times,serif" font-size="14.00">LongAnswerFieldComponent</text>
</g>
<!-- LongAnswerFieldComponent&#45;&gt;SharedModule -->
<g id="edge12" class="edge">
<title>LongAnswerFieldComponent&#45;&gt;SharedModule</title>
<path fill="none" stroke="black" d="M1788.97,-85.05C1788.97,-98.98 1788.97,-115.8 1788.97,-115.8 1788.97,-115.8 1825.58,-115.8 1825.58,-115.8"/>
<polygon fill="black" stroke="black" points="1825.58,-119.3 1835.58,-115.8 1825.58,-112.3 1825.58,-119.3"/>
</g>
<!-- RadioButtonAnswerFieldComponent -->
<g id="node13" class="node">
<title>RadioButtonAnswerFieldComponent</title>
<polygon fill="#ffffb3" stroke="black" points="1594.7,-84.8 1369.3,-84.8 1369.3,-48.8 1594.7,-48.8 1594.7,-84.8"/>
<text text-anchor="middle" x="1482" y="-62.6" font-family="Times,serif" font-size="14.00">RadioButtonAnswerFieldComponent</text>
</g>
<!-- RadioButtonAnswerFieldComponent&#45;&gt;SharedModule -->
<g id="edge13" class="edge">
<title>RadioButtonAnswerFieldComponent&#45;&gt;SharedModule</title>
<path fill="none" stroke="black" d="M1585.98,-84.92C1585.98,-99.58 1585.98,-117.8 1585.98,-117.8 1585.98,-117.8 1825.62,-117.8 1825.62,-117.8"/>
<polygon fill="black" stroke="black" points="1825.62,-121.3 1835.62,-117.8 1825.62,-114.3 1825.62,-121.3"/>
</g>
<!-- ResponsiveRowComponent -->
<g id="node14" class="node">
<title>ResponsiveRowComponent</title>
<polygon fill="#ffffb3" stroke="black" points="1351.32,-84.8 1178.68,-84.8 1178.68,-48.8 1351.32,-48.8 1351.32,-84.8"/>
<text text-anchor="middle" x="1265" y="-62.6" font-family="Times,serif" font-size="14.00">ResponsiveRowComponent</text>
</g>
<!-- ResponsiveRowComponent&#45;&gt;SharedModule -->
<g id="edge14" class="edge">
<title>ResponsiveRowComponent&#45;&gt;SharedModule</title>
<path fill="none" stroke="black" d="M1339.78,-85.04C1339.78,-100.37 1339.78,-119.8 1339.78,-119.8 1339.78,-119.8 1825.65,-119.8 1825.65,-119.8"/>
<polygon fill="black" stroke="black" points="1825.65,-123.3 1835.65,-119.8 1825.65,-116.3 1825.65,-123.3"/>
</g>
<!-- SelectAnswerFieldComponent -->
<g id="node15" class="node">
<title>SelectAnswerFieldComponent</title>
<polygon fill="#ffffb3" stroke="black" points="1160.85,-84.8 973.15,-84.8 973.15,-48.8 1160.85,-48.8 1160.85,-84.8"/>
<text text-anchor="middle" x="1067" y="-62.6" font-family="Times,serif" font-size="14.00">SelectAnswerFieldComponent</text>
</g>
<!-- SelectAnswerFieldComponent&#45;&gt;SharedModule -->
<g id="edge15" class="edge">
<title>SelectAnswerFieldComponent&#45;&gt;SharedModule</title>
<path fill="none" stroke="black" d="M1145.88,-84.81C1145.88,-100.85 1145.88,-121.8 1145.88,-121.8 1145.88,-121.8 1825.64,-121.8 1825.64,-121.8"/>
<polygon fill="black" stroke="black" points="1825.64,-125.3 1835.64,-121.8 1825.64,-118.3 1825.64,-125.3"/>
</g>
<!-- ShortAnswerFieldComponent -->
<g id="node16" class="node">
<title>ShortAnswerFieldComponent</title>
<polygon fill="#ffffb3" stroke="black" points="954.98,-84.8 771.02,-84.8 771.02,-48.8 954.98,-48.8 954.98,-84.8"/>
<text text-anchor="middle" x="863" y="-62.6" font-family="Times,serif" font-size="14.00">ShortAnswerFieldComponent</text>
</g>
<!-- ShortAnswerFieldComponent&#45;&gt;SharedModule -->
<g id="edge16" class="edge">
<title>ShortAnswerFieldComponent&#45;&gt;SharedModule</title>
<path fill="none" stroke="black" d="M950.16,-84.84C950.16,-101.53 950.16,-123.8 950.16,-123.8 950.16,-123.8 1825.73,-123.8 1825.73,-123.8"/>
<polygon fill="black" stroke="black" points="1825.73,-127.3 1835.73,-123.8 1825.73,-120.3 1825.73,-127.3"/>
</g>
<!-- SideMenuComponent -->
<g id="node17" class="node">
<title>SideMenuComponent</title>
<polygon fill="#ffffb3" stroke="black" points="753.38,-84.8 614.62,-84.8 614.62,-48.8 753.38,-48.8 753.38,-84.8"/>
<text text-anchor="middle" x="684" y="-62.6" font-family="Times,serif" font-size="14.00">SideMenuComponent</text>
</g>
<!-- SideMenuComponent&#45;&gt;SharedModule -->
<g id="edge17" class="edge">
<title>SideMenuComponent&#45;&gt;SharedModule</title>
<path fill="none" stroke="black" d="M746.85,-84.82C746.85,-102.17 746.85,-125.8 746.85,-125.8 746.85,-125.8 1825.73,-125.8 1825.73,-125.8"/>
<polygon fill="black" stroke="black" points="1825.73,-129.3 1835.73,-125.8 1825.73,-122.3 1825.73,-129.3"/>
</g>
<!-- SideMenuItemComponent -->
<g id="node18" class="node">
<title>SideMenuItemComponent</title>
<polygon fill="#ffffb3" stroke="black" points="596.04,-84.8 431.96,-84.8 431.96,-48.8 596.04,-48.8 596.04,-84.8"/>
<text text-anchor="middle" x="514" y="-62.6" font-family="Times,serif" font-size="14.00">SideMenuItemComponent</text>
</g>
<!-- SideMenuItemComponent&#45;&gt;SharedModule -->
<g id="edge18" class="edge">
<title>SideMenuItemComponent&#45;&gt;SharedModule</title>
<path fill="none" stroke="black" d="M588.04,-85.1C588.04,-103.07 588.04,-127.8 588.04,-127.8 588.04,-127.8 1825.74,-127.8 1825.74,-127.8"/>
<polygon fill="black" stroke="black" points="1825.74,-131.3 1835.74,-127.8 1825.74,-124.3 1825.74,-131.3"/>
</g>
<!-- SummaryContainerComponent -->
<g id="node19" class="node">
<title>SummaryContainerComponent</title>
<polygon fill="#ffffb3" stroke="black" points="413.48,-84.8 222.52,-84.8 222.52,-48.8 413.48,-48.8 413.48,-84.8"/>
<text text-anchor="middle" x="318" y="-62.6" font-family="Times,serif" font-size="14.00">SummaryContainerComponent</text>
</g>
<!-- SummaryContainerComponent&#45;&gt;SharedModule -->
<g id="edge19" class="edge">
<title>SummaryContainerComponent&#45;&gt;SharedModule</title>
<path fill="none" stroke="black" d="M403.74,-85.02C403.74,-103.63 403.74,-129.8 403.74,-129.8 403.74,-129.8 1825.72,-129.8 1825.72,-129.8"/>
<polygon fill="black" stroke="black" points="1825.72,-133.3 1835.72,-129.8 1825.72,-126.3 1825.72,-133.3"/>
</g>
<!-- TopMenuComponent -->
<g id="node20" class="node">
<title>TopMenuComponent</title>
<polygon fill="#ffffb3" stroke="black" points="204.04,-84.8 67.96,-84.8 67.96,-48.8 204.04,-48.8 204.04,-84.8"/>
<text text-anchor="middle" x="136" y="-62.6" font-family="Times,serif" font-size="14.00">TopMenuComponent</text>
</g>
<!-- TopMenuComponent&#45;&gt;SharedModule -->
<g id="edge20" class="edge">
<title>TopMenuComponent&#45;&gt;SharedModule</title>
<path fill="none" stroke="black" d="M193.02,-84.91C193.02,-104.14 193.02,-131.8 193.02,-131.8 193.02,-131.8 1825.73,-131.8 1825.73,-131.8"/>
<polygon fill="black" stroke="black" points="1825.73,-135.3 1835.73,-131.8 1825.73,-128.3 1825.73,-135.3"/>
</g>
<!-- BorderedInputComponent  -->
<g id="node22" class="node">
<title>BorderedInputComponent </title>
<polygon fill="#fb8072" stroke="black" points="3758.47,-214.8 3591.53,-214.8 3591.53,-178.8 3758.47,-178.8 3758.47,-214.8"/>
<text text-anchor="middle" x="3675" y="-192.6" font-family="Times,serif" font-size="14.00">BorderedInputComponent </text>
</g>
<!-- SharedModule&#45;&gt;BorderedInputComponent  -->
<g id="edge21" class="edge">
<title>SharedModule&#45;&gt;BorderedInputComponent </title>
<path fill="none" stroke="black" stroke-dasharray="5,2" d="M1934.37,-131.8C2221.31,-131.8 3661.62,-131.8 3661.62,-131.8 3661.62,-131.8 3661.62,-168.69 3661.62,-168.69"/>
<polygon fill="black" stroke="black" points="3658.13,-168.69 3661.62,-178.69 3665.13,-168.69 3658.13,-168.69"/>
</g>
<!-- ContentContainerComponent  -->
<g id="node23" class="node">
<title>ContentContainerComponent </title>
<polygon fill="#fb8072" stroke="black" points="3574.37,-214.8 3389.63,-214.8 3389.63,-178.8 3574.37,-178.8 3574.37,-214.8"/>
<text text-anchor="middle" x="3482" y="-192.6" font-family="Times,serif" font-size="14.00">ContentContainerComponent </text>
</g>
<!-- SharedModule&#45;&gt;ContentContainerComponent  -->
<g id="edge22" class="edge">
<title>SharedModule&#45;&gt;ContentContainerComponent </title>
<path fill="none" stroke="black" stroke-dasharray="5,2" d="M1934.62,-133.8C2203.11,-133.8 3470.12,-133.8 3470.12,-133.8 3470.12,-133.8 3470.12,-168.58 3470.12,-168.58"/>
<polygon fill="black" stroke="black" points="3466.63,-168.58 3470.12,-178.58 3473.63,-168.58 3466.63,-168.58"/>
</g>
<!-- ContentTopMenuComponent  -->
<g id="node24" class="node">
<title>ContentTopMenuComponent </title>
<polygon fill="#fb8072" stroke="black" points="3372.38,-214.8 3187.62,-214.8 3187.62,-178.8 3372.38,-178.8 3372.38,-214.8"/>
<text text-anchor="middle" x="3280" y="-192.6" font-family="Times,serif" font-size="14.00">ContentTopMenuComponent </text>
</g>
<!-- SharedModule&#45;&gt;ContentTopMenuComponent  -->
<g id="edge23" class="edge">
<title>SharedModule&#45;&gt;ContentTopMenuComponent </title>
<path fill="none" stroke="black" stroke-dasharray="5,2" d="M1934.28,-135.8C2180.94,-135.8 3269.62,-135.8 3269.62,-135.8 3269.62,-135.8 3269.62,-168.5 3269.62,-168.5"/>
<polygon fill="black" stroke="black" points="3266.13,-168.5 3269.62,-178.5 3273.13,-168.5 3266.13,-168.5"/>
</g>
<!-- CrudTableComponent  -->
<g id="node25" class="node">
<title>CrudTableComponent </title>
<polygon fill="#fb8072" stroke="black" points="3169.2,-214.8 3024.8,-214.8 3024.8,-178.8 3169.2,-178.8 3169.2,-214.8"/>
<text text-anchor="middle" x="3097" y="-192.6" font-family="Times,serif" font-size="14.00">CrudTableComponent </text>
</g>
<!-- SharedModule&#45;&gt;CrudTableComponent  -->
<g id="edge24" class="edge">
<title>SharedModule&#45;&gt;CrudTableComponent </title>
<path fill="none" stroke="black" stroke-dasharray="5,2" d="M1934.43,-137.8C2160.92,-137.8 3088.62,-137.8 3088.62,-137.8 3088.62,-137.8 3088.62,-168.78 3088.62,-168.78"/>
<polygon fill="black" stroke="black" points="3085.13,-168.78 3088.62,-178.78 3092.13,-168.78 3085.13,-168.78"/>
</g>
<!-- DataTableComponent  -->
<g id="node26" class="node">
<title>DataTableComponent </title>
<polygon fill="#fb8072" stroke="black" points="3006.63,-214.8 2863.37,-214.8 2863.37,-178.8 3006.63,-178.8 3006.63,-214.8"/>
<text text-anchor="middle" x="2935" y="-192.6" font-family="Times,serif" font-size="14.00">DataTableComponent </text>
</g>
<!-- SharedModule&#45;&gt;DataTableComponent  -->
<g id="edge25" class="edge">
<title>SharedModule&#45;&gt;DataTableComponent </title>
<path fill="none" stroke="black" stroke-dasharray="5,2" d="M1934.28,-139.8C2141.15,-139.8 2928.62,-139.8 2928.62,-139.8 2928.62,-139.8 2928.62,-168.76 2928.62,-168.76"/>
<polygon fill="black" stroke="black" points="2925.13,-168.76 2928.62,-178.76 2932.13,-168.76 2925.13,-168.76"/>
</g>
<!-- DefaultDataPageComponent  -->
<g id="node27" class="node">
<title>DefaultDataPageComponent </title>
<polygon fill="#fb8072" stroke="black" points="2845.45,-214.8 2664.55,-214.8 2664.55,-178.8 2845.45,-178.8 2845.45,-214.8"/>
<text text-anchor="middle" x="2755" y="-192.6" font-family="Times,serif" font-size="14.00">DefaultDataPageComponent </text>
</g>
<!-- SharedModule&#45;&gt;DefaultDataPageComponent  -->
<g id="edge26" class="edge">
<title>SharedModule&#45;&gt;DefaultDataPageComponent </title>
<path fill="none" stroke="black" stroke-dasharray="5,2" d="M1934.23,-140.8C2113.65,-140.8 2722.01,-140.8 2722.01,-140.8 2722.01,-140.8 2722.01,-168.77 2722.01,-168.77"/>
<polygon fill="black" stroke="black" points="2718.51,-168.77 2722.01,-178.77 2725.51,-168.77 2718.51,-168.77"/>
</g>
<!-- DefaultFormPageComponent  -->
<g id="node28" class="node">
<title>DefaultFormPageComponent </title>
<polygon fill="#fb8072" stroke="black" points="2647.36,-214.8 2462.64,-214.8 2462.64,-178.8 2647.36,-178.8 2647.36,-214.8"/>
<text text-anchor="middle" x="2555" y="-192.6" font-family="Times,serif" font-size="14.00">DefaultFormPageComponent </text>
</g>
<!-- SharedModule&#45;&gt;DefaultFormPageComponent  -->
<g id="edge27" class="edge">
<title>SharedModule&#45;&gt;DefaultFormPageComponent </title>
<path fill="none" stroke="black" stroke-dasharray="5,2" d="M1934.22,-142.8C2083.72,-142.8 2522.36,-142.8 2522.36,-142.8 2522.36,-142.8 2522.36,-168.52 2522.36,-168.52"/>
<polygon fill="black" stroke="black" points="2518.86,-168.52 2522.36,-178.52 2525.86,-168.52 2518.86,-168.52"/>
</g>
<!-- DefaultPageComponent  -->
<g id="node29" class="node">
<title>DefaultPageComponent </title>
<polygon fill="#fb8072" stroke="black" points="2445.02,-214.8 2290.98,-214.8 2290.98,-178.8 2445.02,-178.8 2445.02,-214.8"/>
<text text-anchor="middle" x="2368" y="-192.6" font-family="Times,serif" font-size="14.00">DefaultPageComponent </text>
</g>
<!-- SharedModule&#45;&gt;DefaultPageComponent  -->
<g id="edge28" class="edge">
<title>SharedModule&#45;&gt;DefaultPageComponent </title>
<path fill="none" stroke="black" stroke-dasharray="5,2" d="M1934.33,-144.8C2052.48,-144.8 2341.91,-144.8 2341.91,-144.8 2341.91,-144.8 2341.91,-168.61 2341.91,-168.61"/>
<polygon fill="black" stroke="black" points="2338.41,-168.61 2341.91,-178.61 2345.41,-168.61 2338.41,-168.61"/>
</g>
<!-- DeleteModalComponent  -->
<g id="node30" class="node">
<title>DeleteModalComponent </title>
<polygon fill="#fb8072" stroke="black" points="2272.91,-214.8 2115.09,-214.8 2115.09,-178.8 2272.91,-178.8 2272.91,-214.8"/>
<text text-anchor="middle" x="2194" y="-192.6" font-family="Times,serif" font-size="14.00">DeleteModalComponent </text>
</g>
<!-- SharedModule&#45;&gt;DeleteModalComponent  -->
<g id="edge29" class="edge">
<title>SharedModule&#45;&gt;DeleteModalComponent </title>
<path fill="none" stroke="black" stroke-dasharray="5,2" d="M1934.35,-146.8C2027.93,-146.8 2221.9,-146.8 2221.9,-146.8 2221.9,-146.8 2221.9,-168.75 2221.9,-168.75"/>
<polygon fill="black" stroke="black" points="2218.4,-168.75 2221.9,-178.75 2225.4,-168.75 2218.4,-168.75"/>
</g>
<!-- ErrorMessageComponent  -->
<g id="node31" class="node">
<title>ErrorMessageComponent </title>
<polygon fill="#fb8072" stroke="black" points="2096.84,-214.8 1933.16,-214.8 1933.16,-178.8 2096.84,-178.8 2096.84,-214.8"/>
<text text-anchor="middle" x="2015" y="-192.6" font-family="Times,serif" font-size="14.00">ErrorMessageComponent </text>
</g>
<!-- SharedModule&#45;&gt;ErrorMessageComponent  -->
<g id="edge30" class="edge">
<title>SharedModule&#45;&gt;ErrorMessageComponent </title>
<path fill="none" stroke="black" stroke-dasharray="5,2" d="M1934.32,-148.8C1936.71,-148.8 1938.14,-148.8 1938.14,-148.8 1938.14,-148.8 1938.14,-168.65 1938.14,-168.65"/>
<polygon fill="black" stroke="black" points="1934.64,-168.65 1938.14,-178.65 1941.64,-168.65 1934.64,-168.65"/>
</g>
<!-- LogoComponent  -->
<g id="node32" class="node">
<title>LogoComponent </title>
<polygon fill="#fb8072" stroke="black" points="1915.39,-214.8 1800.61,-214.8 1800.61,-178.8 1915.39,-178.8 1915.39,-214.8"/>
<text text-anchor="middle" x="1858" y="-192.6" font-family="Times,serif" font-size="14.00">LogoComponent </text>
</g>
<!-- SharedModule&#45;&gt;LogoComponent  -->
<g id="edge31" class="edge">
<title>SharedModule&#45;&gt;LogoComponent </title>
<path fill="none" stroke="black" stroke-dasharray="5,2" d="M1875.49,-149.91C1875.49,-149.91 1875.49,-168.79 1875.49,-168.79"/>
<polygon fill="black" stroke="black" points="1871.99,-168.79 1875.49,-178.79 1878.99,-168.79 1871.99,-168.79"/>
</g>
<!-- LongAnswerFieldComponent  -->
<g id="node33" class="node">
<title>LongAnswerFieldComponent </title>
<polygon fill="#fb8072" stroke="black" points="1782.2,-214.8 1595.8,-214.8 1595.8,-178.8 1782.2,-178.8 1782.2,-214.8"/>
<text text-anchor="middle" x="1689" y="-192.6" font-family="Times,serif" font-size="14.00">LongAnswerFieldComponent </text>
</g>
<!-- SharedModule&#45;&gt;LongAnswerFieldComponent  -->
<g id="edge32" class="edge">
<title>SharedModule&#45;&gt;LongAnswerFieldComponent </title>
<path fill="none" stroke="black" stroke-dasharray="5,2" d="M1835.7,-148.8C1780.11,-148.8 1697.38,-148.8 1697.38,-148.8 1697.38,-148.8 1697.38,-168.65 1697.38,-168.65"/>
<polygon fill="black" stroke="black" points="1693.88,-168.65 1697.38,-178.65 1700.88,-168.65 1693.88,-168.65"/>
</g>
<!-- RadioButtonAnswerFieldComponent  -->
<g id="node34" class="node">
<title>RadioButtonAnswerFieldComponent </title>
<polygon fill="#fb8072" stroke="black" points="1577.2,-214.8 1348.8,-214.8 1348.8,-178.8 1577.2,-178.8 1577.2,-214.8"/>
<text text-anchor="middle" x="1463" y="-192.6" font-family="Times,serif" font-size="14.00">RadioButtonAnswerFieldComponent </text>
</g>
<!-- SharedModule&#45;&gt;RadioButtonAnswerFieldComponent  -->
<g id="edge33" class="edge">
<title>SharedModule&#45;&gt;RadioButtonAnswerFieldComponent </title>
<path fill="none" stroke="black" stroke-dasharray="5,2" d="M1835.76,-146.8C1726.5,-146.8 1473.38,-146.8 1473.38,-146.8 1473.38,-146.8 1473.38,-168.75 1473.38,-168.75"/>
<polygon fill="black" stroke="black" points="1469.88,-168.75 1473.38,-178.75 1476.88,-168.75 1469.88,-168.75"/>
</g>
<!-- ResponsiveRowComponent  -->
<g id="node35" class="node">
<title>ResponsiveRowComponent </title>
<polygon fill="#fb8072" stroke="black" points="1330.82,-214.8 1155.18,-214.8 1155.18,-178.8 1330.82,-178.8 1330.82,-214.8"/>
<text text-anchor="middle" x="1243" y="-192.6" font-family="Times,serif" font-size="14.00">ResponsiveRowComponent </text>
</g>
<!-- SharedModule&#45;&gt;ResponsiveRowComponent  -->
<g id="edge34" class="edge">
<title>SharedModule&#45;&gt;ResponsiveRowComponent </title>
<path fill="none" stroke="black" stroke-dasharray="5,2" d="M1835.56,-144.8C1687.01,-144.8 1254.88,-144.8 1254.88,-144.8 1254.88,-144.8 1254.88,-168.61 1254.88,-168.61"/>
<polygon fill="black" stroke="black" points="1251.38,-168.61 1254.88,-178.61 1258.38,-168.61 1251.38,-168.61"/>
</g>
<!-- SelectAnswerFieldComponent  -->
<g id="node36" class="node">
<title>SelectAnswerFieldComponent </title>
<polygon fill="#fb8072" stroke="black" points="1136.85,-214.8 945.15,-214.8 945.15,-178.8 1136.85,-178.8 1136.85,-214.8"/>
<text text-anchor="middle" x="1041" y="-192.6" font-family="Times,serif" font-size="14.00">SelectAnswerFieldComponent </text>
</g>
<!-- SharedModule&#45;&gt;SelectAnswerFieldComponent  -->
<g id="edge35" class="edge">
<title>SharedModule&#45;&gt;SelectAnswerFieldComponent </title>
<path fill="none" stroke="black" stroke-dasharray="5,2" d="M1835.56,-142.8C1656.85,-142.8 1054.88,-142.8 1054.88,-142.8 1054.88,-142.8 1054.88,-168.52 1054.88,-168.52"/>
<polygon fill="black" stroke="black" points="1051.38,-168.52 1054.88,-178.52 1058.38,-168.52 1051.38,-168.52"/>
</g>
<!-- ShortAnswerFieldComponent  -->
<g id="node37" class="node">
<title>ShortAnswerFieldComponent </title>
<polygon fill="#fb8072" stroke="black" points="927.98,-214.8 740.02,-214.8 740.02,-178.8 927.98,-178.8 927.98,-214.8"/>
<text text-anchor="middle" x="834" y="-192.6" font-family="Times,serif" font-size="14.00">ShortAnswerFieldComponent </text>
</g>
<!-- SharedModule&#45;&gt;ShortAnswerFieldComponent  -->
<g id="edge36" class="edge">
<title>SharedModule&#45;&gt;ShortAnswerFieldComponent </title>
<path fill="none" stroke="black" stroke-dasharray="5,2" d="M1835.75,-140.8C1629.93,-140.8 849.38,-140.8 849.38,-140.8 849.38,-140.8 849.38,-168.77 849.38,-168.77"/>
<polygon fill="black" stroke="black" points="845.88,-168.77 849.38,-178.77 852.88,-168.77 845.88,-168.77"/>
</g>
<!-- SideMenuComponent  -->
<g id="node38" class="node">
<title>SideMenuComponent </title>
<polygon fill="#fb8072" stroke="black" points="722.38,-214.8 579.62,-214.8 579.62,-178.8 722.38,-178.8 722.38,-214.8"/>
<text text-anchor="middle" x="651" y="-192.6" font-family="Times,serif" font-size="14.00">SideMenuComponent </text>
</g>
<!-- SharedModule&#45;&gt;SideMenuComponent  -->
<g id="edge37" class="edge">
<title>SharedModule&#45;&gt;SideMenuComponent </title>
<path fill="none" stroke="black" stroke-dasharray="5,2" d="M1835.42,-138.8C1607.14,-138.8 668.38,-138.8 668.38,-138.8 668.38,-138.8 668.38,-168.77 668.38,-168.77"/>
<polygon fill="black" stroke="black" points="664.88,-168.77 668.38,-178.77 671.88,-168.77 664.88,-168.77"/>
</g>
<!-- SideMenuItemComponent  -->
<g id="node39" class="node">
<title>SideMenuItemComponent </title>
<polygon fill="#fb8072" stroke="black" points="562.04,-214.8 393.96,-214.8 393.96,-178.8 562.04,-178.8 562.04,-214.8"/>
<text text-anchor="middle" x="478" y="-192.6" font-family="Times,serif" font-size="14.00">SideMenuItemComponent </text>
</g>
<!-- SharedModule&#45;&gt;SideMenuItemComponent  -->
<g id="edge38" class="edge">
<title>SharedModule&#45;&gt;SideMenuItemComponent </title>
<path fill="none" stroke="black" stroke-dasharray="5,2" d="M1835.6,-136.8C1588.32,-136.8 496.88,-136.8 496.88,-136.8 496.88,-136.8 496.88,-168.8 496.88,-168.8"/>
<polygon fill="black" stroke="black" points="493.38,-168.8 496.88,-178.8 500.38,-168.8 493.38,-168.8"/>
</g>
<!-- SummaryContainerComponent  -->
<g id="node40" class="node">
<title>SummaryContainerComponent </title>
<polygon fill="#fb8072" stroke="black" points="376.48,-214.8 181.52,-214.8 181.52,-178.8 376.48,-178.8 376.48,-214.8"/>
<text text-anchor="middle" x="279" y="-192.6" font-family="Times,serif" font-size="14.00">SummaryContainerComponent </text>
</g>
<!-- SharedModule&#45;&gt;SummaryContainerComponent  -->
<g id="edge39" class="edge">
<title>SharedModule&#45;&gt;SummaryContainerComponent </title>
<path fill="none" stroke="black" stroke-dasharray="5,2" d="M1835.37,-134.8C1566.79,-134.8 299.38,-134.8 299.38,-134.8 299.38,-134.8 299.38,-168.53 299.38,-168.53"/>
<polygon fill="black" stroke="black" points="295.88,-168.53 299.38,-178.53 302.88,-168.53 295.88,-168.53"/>
</g>
<!-- TopMenuComponent  -->
<g id="node41" class="node">
<title>TopMenuComponent </title>
<polygon fill="#fb8072" stroke="black" points="164.04,-214.8 23.96,-214.8 23.96,-178.8 164.04,-178.8 164.04,-214.8"/>
<text text-anchor="middle" x="94" y="-192.6" font-family="Times,serif" font-size="14.00">TopMenuComponent </text>
</g>
<!-- SharedModule&#45;&gt;TopMenuComponent  -->
<g id="edge40" class="edge">
<title>SharedModule&#45;&gt;TopMenuComponent </title>
<path fill="none" stroke="black" stroke-dasharray="5,2" d="M1835.37,-132.8C1548.56,-132.8 115.88,-132.8 115.88,-132.8 115.88,-132.8 115.88,-168.63 115.88,-168.63"/>
<polygon fill="black" stroke="black" points="112.38,-168.63 115.88,-178.63 119.38,-168.63 112.38,-168.63"/>
</g>
</g>
</svg>
