<?xml version="1.0" encoding="UTF-8" standalone="no"?>
<!DOCTYPE svg PUBLIC "-//W3C//DTD SVG 1.1//EN"
 "http://www.w3.org/Graphics/SVG/1.1/DTD/svg11.dtd">
<!-- Generated by graphviz version 2.47.3 (20210619.1520)
 -->
<!-- Title: dependencies Pages: 1 -->
<svg width="1674pt" height="174pt"
 viewBox="0.00 0.00 1674.00 173.80" xmlns="http://www.w3.org/2000/svg" xmlns:xlink="http://www.w3.org/1999/xlink">
<g id="graph0" class="graph" transform="scale(1 1) rotate(0) translate(4 169.8)">
<title>dependencies</title>
<polygon fill="white" stroke="transparent" points="-4,4 -4,-169.8 1670,-169.8 1670,4 -4,4"/>
<text text-anchor="middle" x="833" y="-8.2" font-family="sans-serif" font-size="14.00">dependencies</text>
<g id="clust1" class="cluster">
<title>cluster_ResourcesModule</title>
<polygon fill="none" stroke="black" stroke-dasharray="1,5" points="8,-32.8 8,-157.8 1658,-157.8 1658,-32.8 8,-32.8"/>
</g>
<g id="clust2" class="cluster">
<title>cluster_ResourcesModule_declarations</title>
<polygon fill="none" stroke="black" points="138,-40.8 138,-92.8 1650,-92.8 1650,-40.8 138,-40.8"/>
</g>
<g id="clust11" class="cluster">
<title>cluster_ResourcesModule_imports</title>
<polygon fill="none" stroke="black" points="16,-40.8 16,-92.8 130,-92.8 130,-40.8 16,-40.8"/>
</g>
<!-- EquipmentsDataComponent -->
<g id="node1" class="node">
<title>EquipmentsDataComponent</title>
<polygon fill="#ffffb3" stroke="black" points="1642.14,-84.8 1467.86,-84.8 1467.86,-48.8 1642.14,-48.8 1642.14,-84.8"/>
<text text-anchor="middle" x="1555" y="-62.6" font-family="Times,serif" font-size="14.00">EquipmentsDataComponent</text>
</g>
<!-- ResourcesModule -->
<g id="node9" class="node">
<title>ResourcesModule</title>
<polygon fill="#8dd3c7" stroke="black" points="779.58,-149.8 776.58,-153.8 755.58,-153.8 752.58,-149.8 662.42,-149.8 662.42,-113.8 779.58,-113.8 779.58,-149.8"/>
<text text-anchor="middle" x="721" y="-127.6" font-family="Times,serif" font-size="14.00">ResourcesModule</text>
</g>
<!-- EquipmentsDataComponent&#45;&gt;ResourcesModule -->
<g id="edge1" class="edge">
<title>EquipmentsDataComponent&#45;&gt;ResourcesModule</title>
<path fill="none" stroke="black" d="M1555,-84.81C1555,-107.29 1555,-142.8 1555,-142.8 1555,-142.8 789.65,-142.8 789.65,-142.8"/>
<polygon fill="black" stroke="black" points="789.65,-139.3 779.65,-142.8 789.65,-146.3 789.65,-139.3"/>
</g>
<!-- EquipmentsFormComponent -->
<g id="node2" class="node">
<title>EquipmentsFormComponent</title>
<polygon fill="#ffffb3" stroke="black" points="1449.05,-84.8 1270.95,-84.8 1270.95,-48.8 1449.05,-48.8 1449.05,-84.8"/>
<text text-anchor="middle" x="1360" y="-62.6" font-family="Times,serif" font-size="14.00">EquipmentsFormComponent</text>
</g>
<!-- EquipmentsFormComponent&#45;&gt;ResourcesModule -->
<g id="edge2" class="edge">
<title>EquipmentsFormComponent&#45;&gt;ResourcesModule</title>
<path fill="none" stroke="black" d="M1360,-84.93C1360,-105.37 1360,-135.8 1360,-135.8 1360,-135.8 789.69,-135.8 789.69,-135.8"/>
<polygon fill="black" stroke="black" points="789.69,-132.3 779.69,-135.8 789.69,-139.3 789.69,-132.3"/>
</g>
<!-- MachineFamiliesDataComponent -->
<g id="node3" class="node">
<title>MachineFamiliesDataComponent</title>
<polygon fill="#ffffb3" stroke="black" points="1252.46,-84.8 1047.54,-84.8 1047.54,-48.8 1252.46,-48.8 1252.46,-84.8"/>
<text text-anchor="middle" x="1150" y="-62.6" font-family="Times,serif" font-size="14.00">MachineFamiliesDataComponent</text>
</g>
<!-- MachineFamiliesDataComponent&#45;&gt;ResourcesModule -->
<g id="edge3" class="edge">
<title>MachineFamiliesDataComponent&#45;&gt;ResourcesModule</title>
<path fill="none" stroke="black" d="M1150,-85.07C1150,-103.36 1150,-128.8 1150,-128.8 1150,-128.8 789.75,-128.8 789.75,-128.8"/>
<polygon fill="black" stroke="black" points="789.75,-125.3 779.75,-128.8 789.75,-132.3 789.75,-125.3"/>
</g>
<!-- MachineFamiliesFormComponent -->
<g id="node4" class="node">
<title>MachineFamiliesFormComponent</title>
<polygon fill="#ffffb3" stroke="black" points="1029.36,-84.8 820.64,-84.8 820.64,-48.8 1029.36,-48.8 1029.36,-84.8"/>
<text text-anchor="middle" x="925" y="-62.6" font-family="Times,serif" font-size="14.00">MachineFamiliesFormComponent</text>
</g>
<!-- MachineFamiliesFormComponent&#45;&gt;ResourcesModule -->
<g id="edge4" class="edge">
<title>MachineFamiliesFormComponent&#45;&gt;ResourcesModule</title>
<path fill="none" stroke="black" d="M925,-84.81C925,-100.85 925,-121.8 925,-121.8 925,-121.8 789.73,-121.8 789.73,-121.8"/>
<polygon fill="black" stroke="black" points="789.73,-118.3 779.73,-121.8 789.73,-125.3 789.73,-118.3"/>
</g>
<!-- MachinesDataComponent -->
<g id="node5" class="node">
<title>MachinesDataComponent</title>
<polygon fill="#ffffb3" stroke="black" points="802.18,-84.8 639.82,-84.8 639.82,-48.8 802.18,-48.8 802.18,-84.8"/>
<text text-anchor="middle" x="721" y="-62.6" font-family="Times,serif" font-size="14.00">MachinesDataComponent</text>
</g>
<!-- MachinesDataComponent&#45;&gt;ResourcesModule -->
<g id="edge5" class="edge">
<title>MachinesDataComponent&#45;&gt;ResourcesModule</title>
<path fill="none" stroke="black" d="M721,-84.91C721,-84.91 721,-103.79 721,-103.79"/>
<polygon fill="black" stroke="black" points="717.5,-103.79 721,-113.79 724.5,-103.79 717.5,-103.79"/>
</g>
<!-- MachinesFormComponent -->
<g id="node6" class="node">
<title>MachinesFormComponent</title>
<polygon fill="#ffffb3" stroke="black" points="622.09,-84.8 455.91,-84.8 455.91,-48.8 622.09,-48.8 622.09,-84.8"/>
<text text-anchor="middle" x="539" y="-62.6" font-family="Times,serif" font-size="14.00">MachinesFormComponent</text>
</g>
<!-- MachinesFormComponent&#45;&gt;ResourcesModule -->
<g id="edge6" class="edge">
<title>MachinesFormComponent&#45;&gt;ResourcesModule</title>
<path fill="none" stroke="black" d="M539,-84.81C539,-100.85 539,-121.8 539,-121.8 539,-121.8 652.41,-121.8 652.41,-121.8"/>
<polygon fill="black" stroke="black" points="652.41,-125.3 662.41,-121.8 652.41,-118.3 652.41,-125.3"/>
</g>
<!-- TagsDataComponent -->
<g id="node7" class="node">
<title>TagsDataComponent</title>
<polygon fill="#ffffb3" stroke="black" points="437.47,-84.8 302.53,-84.8 302.53,-48.8 437.47,-48.8 437.47,-84.8"/>
<text text-anchor="middle" x="370" y="-62.6" font-family="Times,serif" font-size="14.00">TagsDataComponent</text>
</g>
<!-- TagsDataComponent&#45;&gt;ResourcesModule -->
<g id="edge7" class="edge">
<title>TagsDataComponent&#45;&gt;ResourcesModule</title>
<path fill="none" stroke="black" d="M370,-85.07C370,-103.36 370,-128.8 370,-128.8 370,-128.8 652.25,-128.8 652.25,-128.8"/>
<polygon fill="black" stroke="black" points="652.25,-132.3 662.25,-128.8 652.25,-125.3 652.25,-132.3"/>
</g>
<!-- TagsFormComponent -->
<g id="node8" class="node">
<title>TagsFormComponent</title>
<polygon fill="#ffffb3" stroke="black" points="284.38,-84.8 145.62,-84.8 145.62,-48.8 284.38,-48.8 284.38,-84.8"/>
<text text-anchor="middle" x="215" y="-62.6" font-family="Times,serif" font-size="14.00">TagsFormComponent</text>
</g>
<!-- TagsFormComponent&#45;&gt;ResourcesModule -->
<g id="edge8" class="edge">
<title>TagsFormComponent&#45;&gt;ResourcesModule</title>
<path fill="none" stroke="black" d="M215,-84.93C215,-105.37 215,-135.8 215,-135.8 215,-135.8 651.97,-135.8 651.97,-135.8"/>
<polygon fill="black" stroke="black" points="651.97,-139.3 661.97,-135.8 651.97,-132.3 651.97,-139.3"/>
</g>
<!-- SharedModule -->
<g id="node10" class="node">
<title>SharedModule</title>
<polygon fill="#8dd3c7" stroke="black" points="122.42,-84.8 119.42,-88.8 98.42,-88.8 95.42,-84.8 23.58,-84.8 23.58,-48.8 122.42,-48.8 122.42,-84.8"/>
<text text-anchor="middle" x="73" y="-62.6" font-family="Times,serif" font-size="14.00">SharedModule</text>
</g>
<!-- SharedModule&#45;&gt;ResourcesModule -->
<g id="edge9" class="edge">
<title>SharedModule&#45;&gt;ResourcesModule</title>
<path fill="none" stroke="black" d="M73,-84.81C73,-107.29 73,-142.8 73,-142.8 73,-142.8 652.35,-142.8 652.35,-142.8"/>
<polygon fill="black" stroke="black" points="652.35,-146.3 662.35,-142.8 652.35,-139.3 652.35,-146.3"/>
</g>
</g>
</svg>
