<?xml version="1.0" encoding="UTF-8" standalone="no"?>
<!DOCTYPE svg PUBLIC "-//W3C//DTD SVG 1.1//EN"
 "http://www.w3.org/Graphics/SVG/1.1/DTD/svg11.dtd">
<!-- Generated by graphviz version 2.47.3 (20210619.1520)
 -->
<!-- Title: dependencies Pages: 1 -->
<svg width="1255pt" height="174pt"
 viewBox="0.00 0.00 1255.00 173.80" xmlns="http://www.w3.org/2000/svg" xmlns:xlink="http://www.w3.org/1999/xlink">
<g id="graph0" class="graph" transform="scale(1 1) rotate(0) translate(4 169.8)">
<title>dependencies</title>
<polygon fill="white" stroke="transparent" points="-4,4 -4,-169.8 1251,-169.8 1251,4 -4,4"/>
<text text-anchor="middle" x="623.5" y="-8.2" font-family="sans-serif" font-size="14.00">dependencies</text>
<g id="clust1" class="cluster">
<title>cluster_ManpowerModule</title>
<polygon fill="none" stroke="black" stroke-dasharray="1,5" points="8,-32.8 8,-157.8 1239,-157.8 1239,-32.8 8,-32.8"/>
</g>
<g id="clust9" class="cluster">
<title>cluster_ManpowerModule_imports</title>
<polygon fill="none" stroke="black" points="1117,-40.8 1117,-92.8 1231,-92.8 1231,-40.8 1117,-40.8"/>
</g>
<g id="clust2" class="cluster">
<title>cluster_ManpowerModule_declarations</title>
<polygon fill="none" stroke="black" points="16,-40.8 16,-92.8 1109,-92.8 1109,-40.8 16,-40.8"/>
</g>
<!-- DepartmentDataComponent -->
<g id="node1" class="node">
<title>DepartmentDataComponent</title>
<polygon fill="#ffffb3" stroke="black" points="1100.84,-84.8 927.16,-84.8 927.16,-48.8 1100.84,-48.8 1100.84,-84.8"/>
<text text-anchor="middle" x="1014" y="-62.6" font-family="Times,serif" font-size="14.00">DepartmentDataComponent</text>
</g>
<!-- ManpowerModule -->
<g id="node7" class="node">
<title>ManpowerModule</title>
<polygon fill="#8dd3c7" stroke="black" points="688.19,-149.8 685.19,-153.8 664.19,-153.8 661.19,-149.8 567.81,-149.8 567.81,-113.8 688.19,-113.8 688.19,-149.8"/>
<text text-anchor="middle" x="628" y="-127.6" font-family="Times,serif" font-size="14.00">ManpowerModule</text>
</g>
<!-- DepartmentDataComponent&#45;&gt;ManpowerModule -->
<g id="edge1" class="edge">
<title>DepartmentDataComponent&#45;&gt;ManpowerModule</title>
<path fill="none" stroke="black" d="M1014,-84.91C1014,-104.14 1014,-131.8 1014,-131.8 1014,-131.8 698.31,-131.8 698.31,-131.8"/>
<polygon fill="black" stroke="black" points="698.31,-128.3 688.31,-131.8 698.31,-135.3 698.31,-128.3"/>
</g>
<!-- DepartmentFormComponent -->
<g id="node2" class="node">
<title>DepartmentFormComponent</title>
<polygon fill="#ffffb3" stroke="black" points="908.75,-84.8 731.25,-84.8 731.25,-48.8 908.75,-48.8 908.75,-84.8"/>
<text text-anchor="middle" x="820" y="-62.6" font-family="Times,serif" font-size="14.00">DepartmentFormComponent</text>
</g>
<!-- DepartmentFormComponent&#45;&gt;ManpowerModule -->
<g id="edge2" class="edge">
<title>DepartmentFormComponent&#45;&gt;ManpowerModule</title>
<path fill="none" stroke="black" d="M820,-84.83C820,-101.2 820,-122.8 820,-122.8 820,-122.8 698.22,-122.8 698.22,-122.8"/>
<polygon fill="black" stroke="black" points="698.22,-119.3 688.22,-122.8 698.22,-126.3 698.22,-119.3"/>
</g>
<!-- EmployeesDataComponent -->
<g id="node3" class="node">
<title>EmployeesDataComponent</title>
<polygon fill="#ffffb3" stroke="black" points="712.97,-84.8 543.03,-84.8 543.03,-48.8 712.97,-48.8 712.97,-84.8"/>
<text text-anchor="middle" x="628" y="-62.6" font-family="Times,serif" font-size="14.00">EmployeesDataComponent</text>
</g>
<!-- EmployeesDataComponent&#45;&gt;ManpowerModule -->
<g id="edge3" class="edge">
<title>EmployeesDataComponent&#45;&gt;ManpowerModule</title>
<path fill="none" stroke="black" d="M628,-84.91C628,-84.91 628,-103.79 628,-103.79"/>
<polygon fill="black" stroke="black" points="624.5,-103.79 628,-113.79 631.5,-103.79 624.5,-103.79"/>
</g>
<!-- EmployeesFormComponent -->
<g id="node4" class="node">
<title>EmployeesFormComponent</title>
<polygon fill="#ffffb3" stroke="black" points="524.87,-84.8 351.13,-84.8 351.13,-48.8 524.87,-48.8 524.87,-84.8"/>
<text text-anchor="middle" x="438" y="-62.6" font-family="Times,serif" font-size="14.00">EmployeesFormComponent</text>
</g>
<!-- EmployeesFormComponent&#45;&gt;ManpowerModule -->
<g id="edge4" class="edge">
<title>EmployeesFormComponent&#45;&gt;ManpowerModule</title>
<path fill="none" stroke="black" d="M438,-84.83C438,-101.2 438,-122.8 438,-122.8 438,-122.8 557.88,-122.8 557.88,-122.8"/>
<polygon fill="black" stroke="black" points="557.88,-126.3 567.88,-122.8 557.88,-119.3 557.88,-126.3"/>
</g>
<!-- SectorDataComponent -->
<g id="node5" class="node">
<title>SectorDataComponent</title>
<polygon fill="#ffffb3" stroke="black" points="332.52,-84.8 189.48,-84.8 189.48,-48.8 332.52,-48.8 332.52,-84.8"/>
<text text-anchor="middle" x="261" y="-62.6" font-family="Times,serif" font-size="14.00">SectorDataComponent</text>
</g>
<!-- SectorDataComponent&#45;&gt;ManpowerModule -->
<g id="edge5" class="edge">
<title>SectorDataComponent&#45;&gt;ManpowerModule</title>
<path fill="none" stroke="black" d="M261,-84.91C261,-104.14 261,-131.8 261,-131.8 261,-131.8 557.81,-131.8 557.81,-131.8"/>
<polygon fill="black" stroke="black" points="557.81,-135.3 567.81,-131.8 557.81,-128.3 557.81,-135.3"/>
</g>
<!-- SectorFormComponent -->
<g id="node6" class="node">
<title>SectorFormComponent</title>
<polygon fill="#ffffb3" stroke="black" points="171.93,-84.8 24.07,-84.8 24.07,-48.8 171.93,-48.8 171.93,-84.8"/>
<text text-anchor="middle" x="98" y="-62.6" font-family="Times,serif" font-size="14.00">SectorFormComponent</text>
</g>
<!-- SectorFormComponent&#45;&gt;ManpowerModule -->
<g id="edge6" class="edge">
<title>SectorFormComponent&#45;&gt;ManpowerModule</title>
<path fill="none" stroke="black" d="M98,-85.09C98,-107.01 98,-140.8 98,-140.8 98,-140.8 557.72,-140.8 557.72,-140.8"/>
<polygon fill="black" stroke="black" points="557.72,-144.3 567.72,-140.8 557.72,-137.3 557.72,-144.3"/>
</g>
<!-- SharedModule -->
<g id="node8" class="node">
<title>SharedModule</title>
<polygon fill="#8dd3c7" stroke="black" points="1223.42,-84.8 1220.42,-88.8 1199.42,-88.8 1196.42,-84.8 1124.58,-84.8 1124.58,-48.8 1223.42,-48.8 1223.42,-84.8"/>
<text text-anchor="middle" x="1174" y="-62.6" font-family="Times,serif" font-size="14.00">SharedModule</text>
</g>
<!-- SharedModule&#45;&gt;ManpowerModule -->
<g id="edge7" class="edge">
<title>SharedModule&#45;&gt;ManpowerModule</title>
<path fill="none" stroke="black" d="M1174,-85.09C1174,-107.01 1174,-140.8 1174,-140.8 1174,-140.8 698.26,-140.8 698.26,-140.8"/>
<polygon fill="black" stroke="black" points="698.26,-137.3 688.26,-140.8 698.26,-144.3 698.26,-137.3"/>
</g>
</g>
</svg>
