<?xml version="1.0" encoding="UTF-8" standalone="no"?>
<!DOCTYPE svg PUBLIC "-//W3C//DTD SVG 1.1//EN"
 "http://www.w3.org/Graphics/SVG/1.1/DTD/svg11.dtd">
<!-- Generated by graphviz version 2.47.3 (20210619.1520)
 -->
<!-- Title: dependencies Pages: 1 -->
<svg width="526pt" height="247pt"
 viewBox="0.00 0.00 526.00 246.80" xmlns="http://www.w3.org/2000/svg" xmlns:xlink="http://www.w3.org/1999/xlink">
<g id="graph0" class="graph" transform="scale(1 1) rotate(0) translate(4 242.8)">
<title>dependencies</title>
<polygon fill="white" stroke="transparent" points="-4,4 -4,-242.8 522,-242.8 522,4 -4,4"/>
<text text-anchor="middle" x="259" y="-8.2" font-family="sans-serif" font-size="14.00">dependencies</text>
<g id="clust1" class="cluster">
<title>cluster_DashboardModule</title>
<polygon fill="none" stroke="black" stroke-dasharray="1,5" points="8,-32.8 8,-230.8 510,-230.8 510,-32.8 8,-32.8"/>
</g>
<g id="clust5" class="cluster">
<title>cluster_DashboardModule_imports</title>
<polygon fill="none" stroke="black" points="388,-40.8 388,-92.8 502,-92.8 502,-40.8 388,-40.8"/>
</g>
<g id="clust6" class="cluster">
<title>cluster_DashboardModule_exports</title>
<polygon fill="none" stroke="black" points="193,-170.8 193,-222.8 381,-222.8 381,-170.8 193,-170.8"/>
</g>
<g id="clust2" class="cluster">
<title>cluster_DashboardModule_declarations</title>
<polygon fill="none" stroke="black" points="16,-40.8 16,-92.8 380,-92.8 380,-40.8 16,-40.8"/>
</g>
<!-- DashboardPageComponent -->
<g id="node1" class="node">
<title>DashboardPageComponent</title>
<polygon fill="#ffffb3" stroke="black" points="371.69,-84.8 202.31,-84.8 202.31,-48.8 371.69,-48.8 371.69,-84.8"/>
<text text-anchor="middle" x="287" y="-62.6" font-family="Times,serif" font-size="14.00">DashboardPageComponent</text>
</g>
<!-- DashboardModule -->
<g id="node3" class="node">
<title>DashboardModule</title>
<polygon fill="#8dd3c7" stroke="black" points="347.19,-149.8 344.19,-153.8 323.19,-153.8 320.19,-149.8 226.81,-149.8 226.81,-113.8 347.19,-113.8 347.19,-149.8"/>
<text text-anchor="middle" x="287" y="-127.6" font-family="Times,serif" font-size="14.00">DashboardModule</text>
</g>
<!-- DashboardPageComponent&#45;&gt;DashboardModule -->
<g id="edge1" class="edge">
<title>DashboardPageComponent&#45;&gt;DashboardModule</title>
<path fill="none" stroke="black" d="M287,-84.91C287,-84.91 287,-103.79 287,-103.79"/>
<polygon fill="black" stroke="black" points="283.5,-103.79 287,-113.79 290.5,-103.79 283.5,-103.79"/>
</g>
<!-- SsOsIndicatorComponent -->
<g id="node2" class="node">
<title>SsOsIndicatorComponent</title>
<polygon fill="#ffffb3" stroke="black" points="184.14,-84.8 23.86,-84.8 23.86,-48.8 184.14,-48.8 184.14,-84.8"/>
<text text-anchor="middle" x="104" y="-62.6" font-family="Times,serif" font-size="14.00">SsOsIndicatorComponent</text>
</g>
<!-- SsOsIndicatorComponent&#45;&gt;DashboardModule -->
<g id="edge2" class="edge">
<title>SsOsIndicatorComponent&#45;&gt;DashboardModule</title>
<path fill="none" stroke="black" d="M104,-84.91C104,-104.14 104,-131.8 104,-131.8 104,-131.8 216.83,-131.8 216.83,-131.8"/>
<polygon fill="black" stroke="black" points="216.83,-135.3 226.83,-131.8 216.83,-128.3 216.83,-135.3"/>
</g>
<!-- DashboardPageComponent  -->
<g id="node5" class="node">
<title>DashboardPageComponent </title>
<polygon fill="#fb8072" stroke="black" points="373.19,-214.8 200.81,-214.8 200.81,-178.8 373.19,-178.8 373.19,-214.8"/>
<text text-anchor="middle" x="287" y="-192.6" font-family="Times,serif" font-size="14.00">DashboardPageComponent </text>
</g>
<!-- DashboardModule&#45;&gt;DashboardPageComponent  -->
<g id="edge4" class="edge">
<title>DashboardModule&#45;&gt;DashboardPageComponent </title>
<path fill="none" stroke="black" stroke-dasharray="5,2" d="M287,-149.91C287,-149.91 287,-168.79 287,-168.79"/>
<polygon fill="black" stroke="black" points="283.5,-168.79 287,-178.79 290.5,-168.79 283.5,-168.79"/>
</g>
<!-- SharedModule -->
<g id="node4" class="node">
<title>SharedModule</title>
<polygon fill="#8dd3c7" stroke="black" points="494.42,-84.8 491.42,-88.8 470.42,-88.8 467.42,-84.8 395.58,-84.8 395.58,-48.8 494.42,-48.8 494.42,-84.8"/>
<text text-anchor="middle" x="445" y="-62.6" font-family="Times,serif" font-size="14.00">SharedModule</text>
</g>
<!-- SharedModule&#45;&gt;DashboardModule -->
<g id="edge3" class="edge">
<title>SharedModule&#45;&gt;DashboardModule</title>
<path fill="none" stroke="black" d="M445,-84.91C445,-104.14 445,-131.8 445,-131.8 445,-131.8 357.18,-131.8 357.18,-131.8"/>
<polygon fill="black" stroke="black" points="357.18,-128.3 347.18,-131.8 357.18,-135.3 357.18,-128.3"/>
</g>
</g>
</svg>
