<?xml version="1.0" encoding="UTF-8" standalone="no"?>
<!DOCTYPE svg PUBLIC "-//W3C//DTD SVG 1.1//EN"
 "http://www.w3.org/Graphics/SVG/1.1/DTD/svg11.dtd">
<!-- Generated by graphviz version 2.47.3 (20210619.1520)
 -->
<!-- Title: dependencies Pages: 1 -->
<svg width="680pt" height="247pt"
 viewBox="0.00 0.00 680.00 246.80" xmlns="http://www.w3.org/2000/svg" xmlns:xlink="http://www.w3.org/1999/xlink">
<g id="graph0" class="graph" transform="scale(1 1) rotate(0) translate(4 242.8)">
<title>dependencies</title>
<polygon fill="white" stroke="transparent" points="-4,4 -4,-242.8 676,-242.8 676,4 -4,4"/>
<text text-anchor="middle" x="336" y="-8.2" font-family="sans-serif" font-size="14.00">dependencies</text>
<g id="clust1" class="cluster">
<title>cluster_AppModule</title>
<polygon fill="none" stroke="black" stroke-dasharray="1,5" points="8,-32.8 8,-230.8 664,-230.8 664,-32.8 8,-32.8"/>
</g>
<g id="clust2" class="cluster">
<title>cluster_AppModule_declarations</title>
<polygon fill="none" stroke="black" points="534,-40.8 534,-92.8 656,-92.8 656,-40.8 534,-40.8"/>
</g>
<g id="clust4" class="cluster">
<title>cluster_AppModule_imports</title>
<polygon fill="none" stroke="black" points="16,-40.8 16,-92.8 526,-92.8 526,-40.8 16,-40.8"/>
</g>
<g id="clust6" class="cluster">
<title>cluster_AppModule_bootstrap</title>
<polygon fill="none" stroke="black" points="250,-170.8 250,-222.8 374,-222.8 374,-170.8 250,-170.8"/>
</g>
<!-- AppComponent -->
<g id="node1" class="node">
<title>AppComponent</title>
<polygon fill="#ffffb3" stroke="black" points="647.94,-84.8 542.06,-84.8 542.06,-48.8 647.94,-48.8 647.94,-84.8"/>
<text text-anchor="middle" x="595" y="-62.6" font-family="Times,serif" font-size="14.00">AppComponent</text>
</g>
<!-- AppModule -->
<g id="node2" class="node">
<title>AppModule</title>
<polygon fill="#8dd3c7" stroke="black" points="353.66,-149.8 350.66,-153.8 329.66,-153.8 326.66,-149.8 270.34,-149.8 270.34,-113.8 353.66,-113.8 353.66,-149.8"/>
<text text-anchor="middle" x="312" y="-127.6" font-family="Times,serif" font-size="14.00">AppModule</text>
</g>
<!-- AppComponent&#45;&gt;AppModule -->
<g id="edge1" class="edge">
<title>AppComponent&#45;&gt;AppModule</title>
<path fill="none" stroke="black" d="M595,-85.08C595,-106.12 595,-137.8 595,-137.8 595,-137.8 363.76,-137.8 363.76,-137.8"/>
<polygon fill="black" stroke="black" points="363.76,-134.3 353.76,-137.8 363.76,-141.3 363.76,-134.3"/>
</g>
<!-- AppComponent  -->
<g id="node7" class="node">
<title>AppComponent </title>
<polygon fill="#80b1d3" stroke="black" points="366.44,-214.8 257.56,-214.8 257.56,-178.8 366.44,-178.8 366.44,-214.8"/>
<text text-anchor="middle" x="312" y="-192.6" font-family="Times,serif" font-size="14.00">AppComponent </text>
</g>
<!-- AppModule&#45;&gt;AppComponent  -->
<g id="edge6" class="edge">
<title>AppModule&#45;&gt;AppComponent </title>
<path fill="none" stroke="black" stroke-dasharray="1,5" d="M312,-149.91C312,-149.91 312,-168.79 312,-168.79"/>
<polygon fill="black" stroke="black" points="308.5,-168.79 312,-178.79 315.5,-168.79 308.5,-168.79"/>
</g>
<!-- AppRoutingModule -->
<g id="node3" class="node">
<title>AppRoutingModule</title>
<polygon fill="#8dd3c7" stroke="black" points="518.27,-84.8 515.27,-88.8 494.27,-88.8 491.27,-84.8 389.73,-84.8 389.73,-48.8 518.27,-48.8 518.27,-84.8"/>
<text text-anchor="middle" x="454" y="-62.6" font-family="Times,serif" font-size="14.00">AppRoutingModule</text>
</g>
<!-- AppRoutingModule&#45;&gt;AppModule -->
<g id="edge2" class="edge">
<title>AppRoutingModule&#45;&gt;AppModule</title>
<path fill="none" stroke="black" d="M454,-84.82C454,-102.17 454,-125.8 454,-125.8 454,-125.8 363.84,-125.8 363.84,-125.8"/>
<polygon fill="black" stroke="black" points="363.84,-122.3 353.84,-125.8 363.84,-129.3 363.84,-122.3"/>
</g>
<!-- DashboardModule -->
<g id="node4" class="node">
<title>DashboardModule</title>
<polygon fill="#8dd3c7" stroke="black" points="372.19,-84.8 369.19,-88.8 348.19,-88.8 345.19,-84.8 251.81,-84.8 251.81,-48.8 372.19,-48.8 372.19,-84.8"/>
<text text-anchor="middle" x="312" y="-62.6" font-family="Times,serif" font-size="14.00">DashboardModule</text>
</g>
<!-- DashboardModule&#45;&gt;AppModule -->
<g id="edge3" class="edge">
<title>DashboardModule&#45;&gt;AppModule</title>
<path fill="none" stroke="black" d="M312,-84.91C312,-84.91 312,-103.79 312,-103.79"/>
<polygon fill="black" stroke="black" points="308.5,-103.79 312,-113.79 315.5,-103.79 308.5,-103.79"/>
</g>
<!-- LoginModule -->
<g id="node5" class="node">
<title>LoginModule</title>
<polygon fill="#8dd3c7" stroke="black" points="233.49,-84.8 230.49,-88.8 209.49,-88.8 206.49,-84.8 140.51,-84.8 140.51,-48.8 233.49,-48.8 233.49,-84.8"/>
<text text-anchor="middle" x="187" y="-62.6" font-family="Times,serif" font-size="14.00">LoginModule</text>
</g>
<!-- LoginModule&#45;&gt;AppModule -->
<g id="edge4" class="edge">
<title>LoginModule&#45;&gt;AppModule</title>
<path fill="none" stroke="black" d="M187,-84.82C187,-102.17 187,-125.8 187,-125.8 187,-125.8 260.03,-125.8 260.03,-125.8"/>
<polygon fill="black" stroke="black" points="260.03,-129.3 270.03,-125.8 260.03,-122.3 260.03,-129.3"/>
</g>
<!-- SharedModule -->
<g id="node6" class="node">
<title>SharedModule</title>
<polygon fill="#8dd3c7" stroke="black" points="122.42,-84.8 119.42,-88.8 98.42,-88.8 95.42,-84.8 23.58,-84.8 23.58,-48.8 122.42,-48.8 122.42,-84.8"/>
<text text-anchor="middle" x="73" y="-62.6" font-family="Times,serif" font-size="14.00">SharedModule</text>
</g>
<!-- SharedModule&#45;&gt;AppModule -->
<g id="edge5" class="edge">
<title>SharedModule&#45;&gt;AppModule</title>
<path fill="none" stroke="black" d="M73,-85.08C73,-106.12 73,-137.8 73,-137.8 73,-137.8 260.1,-137.8 260.1,-137.8"/>
<polygon fill="black" stroke="black" points="260.1,-141.3 270.1,-137.8 260.1,-134.3 260.1,-141.3"/>
</g>
</g>
</svg>
