<?xml version="1.0" encoding="UTF-8" standalone="no"?>
<!DOCTYPE svg PUBLIC "-//W3C//DTD SVG 1.1//EN"
 "http://www.w3.org/Graphics/SVG/1.1/DTD/svg11.dtd">
<!-- Generated by graphviz version 2.47.3 (20210619.1520)
 -->
<!-- Title: dependencies Pages: 1 -->
<svg width="320pt" height="247pt"
 viewBox="0.00 0.00 320.00 246.80" xmlns="http://www.w3.org/2000/svg" xmlns:xlink="http://www.w3.org/1999/xlink">
<g id="graph0" class="graph" transform="scale(1 1) rotate(0) translate(4 242.8)">
<title>dependencies</title>
<polygon fill="white" stroke="transparent" points="-4,4 -4,-242.8 316,-242.8 316,4 -4,4"/>
<text text-anchor="middle" x="156" y="-8.2" font-family="sans-serif" font-size="14.00">dependencies</text>
<g id="clust1" class="cluster">
<title>cluster_LoginModule</title>
<polygon fill="none" stroke="black" stroke-dasharray="1,5" points="8,-32.8 8,-230.8 304,-230.8 304,-32.8 8,-32.8"/>
</g>
<g id="clust4" class="cluster">
<title>cluster_LoginModule_imports</title>
<polygon fill="none" stroke="black" points="182,-40.8 182,-92.8 296,-92.8 296,-40.8 182,-40.8"/>
</g>
<g id="clust5" class="cluster">
<title>cluster_LoginModule_exports</title>
<polygon fill="none" stroke="black" points="75,-170.8 75,-222.8 237,-222.8 237,-170.8 75,-170.8"/>
</g>
<g id="clust2" class="cluster">
<title>cluster_LoginModule_declarations</title>
<polygon fill="none" stroke="black" points="16,-40.8 16,-92.8 174,-92.8 174,-40.8 16,-40.8"/>
</g>
<!-- LoginPageComponent -->
<g id="node1" class="node">
<title>LoginPageComponent</title>
<polygon fill="#ffffb3" stroke="black" points="165.99,-84.8 24.01,-84.8 24.01,-48.8 165.99,-48.8 165.99,-84.8"/>
<text text-anchor="middle" x="95" y="-62.6" font-family="Times,serif" font-size="14.00">LoginPageComponent</text>
</g>
<!-- LoginModule -->
<g id="node2" class="node">
<title>LoginModule</title>
<polygon fill="#8dd3c7" stroke="black" points="202.49,-149.8 199.49,-153.8 178.49,-153.8 175.49,-149.8 109.51,-149.8 109.51,-113.8 202.49,-113.8 202.49,-149.8"/>
<text text-anchor="middle" x="156" y="-127.6" font-family="Times,serif" font-size="14.00">LoginModule</text>
</g>
<!-- LoginPageComponent&#45;&gt;LoginModule -->
<g id="edge1" class="edge">
<title>LoginPageComponent&#45;&gt;LoginModule</title>
<path fill="none" stroke="black" d="M137.75,-84.91C137.75,-84.91 137.75,-103.79 137.75,-103.79"/>
<polygon fill="black" stroke="black" points="134.25,-103.79 137.75,-113.79 141.25,-103.79 134.25,-103.79"/>
</g>
<!-- LoginPageComponent  -->
<g id="node4" class="node">
<title>LoginPageComponent </title>
<polygon fill="#fb8072" stroke="black" points="228.99,-214.8 83.01,-214.8 83.01,-178.8 228.99,-178.8 228.99,-214.8"/>
<text text-anchor="middle" x="156" y="-192.6" font-family="Times,serif" font-size="14.00">LoginPageComponent </text>
</g>
<!-- LoginModule&#45;&gt;LoginPageComponent  -->
<g id="edge3" class="edge">
<title>LoginModule&#45;&gt;LoginPageComponent </title>
<path fill="none" stroke="black" stroke-dasharray="5,2" d="M156,-149.91C156,-149.91 156,-168.79 156,-168.79"/>
<polygon fill="black" stroke="black" points="152.5,-168.79 156,-178.79 159.5,-168.79 152.5,-168.79"/>
</g>
<!-- SharedModule -->
<g id="node3" class="node">
<title>SharedModule</title>
<polygon fill="#8dd3c7" stroke="black" points="288.42,-84.8 285.42,-88.8 264.42,-88.8 261.42,-84.8 189.58,-84.8 189.58,-48.8 288.42,-48.8 288.42,-84.8"/>
<text text-anchor="middle" x="239" y="-62.6" font-family="Times,serif" font-size="14.00">SharedModule</text>
</g>
<!-- SharedModule&#45;&gt;LoginModule -->
<g id="edge2" class="edge">
<title>SharedModule&#45;&gt;LoginModule</title>
<path fill="none" stroke="black" d="M196.14,-84.91C196.14,-84.91 196.14,-103.79 196.14,-103.79"/>
<polygon fill="black" stroke="black" points="192.64,-103.79 196.14,-113.79 199.64,-103.79 192.64,-103.79"/>
</g>
</g>
</svg>
